<svg width="612" height="265" viewBox="0 0 612 265" fill="none" xmlns="http://www.w3.org/2000/svg">
<rect width="612" height="265" rx="10" fill="black"/>
<rect x="183" y="62" width="70" height="70" rx="27" fill="white"/>
<rect x="197" y="90" width="14" height="43" fill="black"/>
<rect x="211" y="76" width="44" height="14" fill="black"/>
<rect x="204" y="104" width="21" height="14" fill="black"/>
<circle cx="211" cy="90" r="14" fill="black"/>
<circle cx="225" cy="104" r="14" fill="black"/>
<rect x="211" y="90" width="33" height="14" rx="3" fill="white"/>
<rect x="339" y="62" width="70" height="70" rx="27" fill="white"/>
<rect x="353" y="90" width="14" height="43" fill="black"/>
<rect x="367" y="76" width="45" height="35" fill="black"/>
<rect x="360" y="104" width="58" height="36" fill="black"/>
<circle cx="367" cy="90" r="14" fill="black"/>
<rect x="350" y="90" width="50" height="14" rx="3" fill="white"/>
<rect x="260" y="62" width="70" height="70" rx="27" fill="white"/>
<rect x="274" y="90" width="14" height="17" fill="black"/>
<rect x="288" y="76" width="44" height="14" fill="black"/>
<rect x="286" y="90" width="44" height="14" fill="black"/>
<rect x="288" y="104" width="44" height="14" fill="black"/>
<circle cx="288" cy="90" r="14" fill="black"/>
<circle cx="288" cy="104" r="14" fill="black"/>
<rect x="271" y="90" width="50" height="14" rx="3" fill="white"/>
<path d="M259.99 149.76H257.37L256.95 151H255.16L257.7 143.98H259.68L262.22 151H260.41L259.99 149.76ZM259.55 148.44L258.68 145.87L257.82 148.44H259.55ZM264.673 143.98V148.18C264.673 148.6 264.776 148.923 264.983 149.15C265.19 149.377 265.493 149.49 265.893 149.49C266.293 149.49 266.6 149.377 266.813 149.15C267.026 148.923 267.133 148.6 267.133 148.18V143.98H268.843V148.17C268.843 148.797 268.71 149.327 268.443 149.76C268.176 150.193 267.816 150.52 267.363 150.74C266.916 150.96 266.416 151.07 265.863 151.07C265.31 151.07 264.813 150.963 264.373 150.75C263.94 150.53 263.596 150.203 263.343 149.77C263.09 149.33 262.963 148.797 262.963 148.17V143.98H264.673ZM275.094 143.98V145.35H273.234V151H271.524V145.35H269.664V143.98H275.094ZM279.272 151.07C278.612 151.07 278.005 150.917 277.452 150.61C276.905 150.303 276.469 149.877 276.142 149.33C275.822 148.777 275.662 148.157 275.662 147.47C275.662 146.783 275.822 146.167 276.142 145.62C276.469 145.073 276.905 144.647 277.452 144.34C278.005 144.033 278.612 143.88 279.272 143.88C279.932 143.88 280.535 144.033 281.082 144.34C281.635 144.647 282.069 145.073 282.382 145.62C282.702 146.167 282.862 146.783 282.862 147.47C282.862 148.157 282.702 148.777 282.382 149.33C282.062 149.877 281.629 150.303 281.082 150.61C280.535 150.917 279.932 151.07 279.272 151.07ZM279.272 149.51C279.832 149.51 280.279 149.323 280.612 148.95C280.952 148.577 281.122 148.083 281.122 147.47C281.122 146.85 280.952 146.357 280.612 145.99C280.279 145.617 279.832 145.43 279.272 145.43C278.705 145.43 278.252 145.613 277.912 145.98C277.579 146.347 277.412 146.843 277.412 147.47C277.412 148.09 277.579 148.587 277.912 148.96C278.252 149.327 278.705 149.51 279.272 149.51ZM291.763 143.98V151H290.053V146.79L288.483 151H287.103L285.523 146.78V151H283.813V143.98H285.833L287.803 148.84L289.753 143.98H291.763ZM296.313 151.07C295.653 151.07 295.046 150.917 294.493 150.61C293.946 150.303 293.51 149.877 293.183 149.33C292.863 148.777 292.703 148.157 292.703 147.47C292.703 146.783 292.863 146.167 293.183 145.62C293.51 145.073 293.946 144.647 294.493 144.34C295.046 144.033 295.653 143.88 296.313 143.88C296.973 143.88 297.576 144.033 298.123 144.34C298.676 144.647 299.11 145.073 299.423 145.62C299.743 146.167 299.903 146.783 299.903 147.47C299.903 148.157 299.743 148.777 299.423 149.33C299.103 149.877 298.67 150.303 298.123 150.61C297.576 150.917 296.973 151.07 296.313 151.07ZM296.313 149.51C296.873 149.51 297.32 149.323 297.653 148.95C297.993 148.577 298.163 148.083 298.163 147.47C298.163 146.85 297.993 146.357 297.653 145.99C297.32 145.617 296.873 145.43 296.313 145.43C295.746 145.43 295.293 145.613 294.953 145.98C294.62 146.347 294.453 146.843 294.453 147.47C294.453 148.09 294.62 148.587 294.953 148.96C295.293 149.327 295.746 149.51 296.313 149.51ZM300.564 147.48C300.564 146.787 300.714 146.17 301.014 145.63C301.314 145.083 301.731 144.66 302.264 144.36C302.804 144.053 303.414 143.9 304.094 143.9C304.928 143.9 305.641 144.12 306.234 144.56C306.828 145 307.224 145.6 307.424 146.36H305.544C305.404 146.067 305.204 145.843 304.944 145.69C304.691 145.537 304.401 145.46 304.074 145.46C303.548 145.46 303.121 145.643 302.794 146.01C302.468 146.377 302.304 146.867 302.304 147.48C302.304 148.093 302.468 148.583 302.794 148.95C303.121 149.317 303.548 149.5 304.074 149.5C304.401 149.5 304.691 149.423 304.944 149.27C305.204 149.117 305.404 148.893 305.544 148.6H307.424C307.224 149.36 306.828 149.96 306.234 150.4C305.641 150.833 304.928 151.05 304.094 151.05C303.414 151.05 302.804 150.9 302.264 150.6C301.731 150.293 301.314 149.87 301.014 149.33C300.714 148.79 300.564 148.173 300.564 147.48ZM310.182 143.98V151H308.472V143.98H310.182ZM314.741 151.07C314.081 151.07 313.474 150.917 312.921 150.61C312.374 150.303 311.937 149.877 311.611 149.33C311.291 148.777 311.131 148.157 311.131 147.47C311.131 146.783 311.291 146.167 311.611 145.62C311.937 145.073 312.374 144.647 312.921 144.34C313.474 144.033 314.081 143.88 314.741 143.88C315.401 143.88 316.004 144.033 316.551 144.34C317.104 144.647 317.537 145.073 317.851 145.62C318.171 146.167 318.331 146.783 318.331 147.47C318.331 148.157 318.171 148.777 317.851 149.33C317.531 149.877 317.097 150.303 316.551 150.61C316.004 150.917 315.401 151.07 314.741 151.07ZM314.741 149.51C315.301 149.51 315.747 149.323 316.081 148.95C316.421 148.577 316.591 148.083 316.591 147.47C316.591 146.85 316.421 146.357 316.081 145.99C315.747 145.617 315.301 145.43 314.741 145.43C314.174 145.43 313.721 145.613 313.381 145.98C313.047 146.347 312.881 146.843 312.881 147.47C312.881 148.09 313.047 148.587 313.381 148.96C313.721 149.327 314.174 149.51 314.741 149.51ZM325.562 151H323.852L320.992 146.67V151H319.282V143.98H320.992L323.852 148.33V143.98H325.562V151Z" fill="white"/>
</svg>
