<svg width="405" height="405" viewBox="0 0 405 405" fill="none" xmlns="http://www.w3.org/2000/svg">
<rect width="405" height="405" fill="white"/>
<rect x="55" y="38" width="280" height="280" rx="115" fill="black"/>
<rect x="111" y="132" width="56" height="219" fill="white"/>
<rect x="146" y="95" width="241" height="56" fill="white"/>
<rect x="159" y="205" width="67" height="56" fill="white"/>
<ellipse cx="143.5" cy="127" rx="32.5" ry="32" fill="white"/>
<circle cx="221" cy="205" r="56" fill="white"/>
<rect x="167" y="151" width="150" height="54" rx="15" fill="black"/>
<path d="M104.561 341.7H108.761L116.591 363H112.331L110.351 357.69H102.911L100.961 363H96.7008L104.561 341.7ZM109.601 354.78L106.661 345.99L103.601 354.78H109.601ZM127.107 363.15C125.407 363.15 123.957 362.87 122.757 362.31C121.577 361.73 120.617 360.94 119.877 359.94C119.157 358.94 118.627 357.81 118.287 356.55C117.947 355.27 117.777 353.94 117.777 352.56V341.7H121.917V352.56C121.917 353.44 121.997 354.3 122.157 355.14C122.337 355.96 122.627 356.7 123.027 357.36C123.427 358.02 123.957 358.54 124.617 358.92C125.277 359.3 126.097 359.49 127.077 359.49C128.077 359.49 128.907 359.3 129.567 358.92C130.247 358.52 130.777 357.99 131.157 357.33C131.557 356.67 131.847 355.93 132.027 355.11C132.207 354.27 132.297 353.42 132.297 352.56V341.7H136.407V352.56C136.407 354.02 136.227 355.39 135.867 356.67C135.527 357.95 134.977 359.08 134.217 360.06C133.477 361.02 132.517 361.78 131.337 362.34C130.157 362.88 128.747 363.15 127.107 363.15ZM156.507 345.33H149.697V363H145.587V345.33H138.777V341.7H156.507V345.33ZM167.744 363.15C166.184 363.15 164.764 362.85 163.484 362.25C162.224 361.65 161.134 360.84 160.214 359.82C159.314 358.78 158.614 357.62 158.114 356.34C157.614 355.04 157.364 353.71 157.364 352.35C157.364 350.93 157.624 349.58 158.144 348.3C158.684 347 159.414 345.85 160.334 344.85C161.274 343.83 162.374 343.03 163.634 342.45C164.914 341.85 166.314 341.55 167.834 341.55C169.374 341.55 170.774 341.86 172.034 342.48C173.314 343.1 174.404 343.93 175.304 344.97C176.204 346.01 176.904 347.17 177.404 348.45C177.904 349.73 178.154 351.05 178.154 352.41C178.154 353.81 177.894 355.16 177.374 356.46C176.854 357.74 176.124 358.89 175.184 359.91C174.264 360.91 173.164 361.7 171.884 362.28C170.624 362.86 169.244 363.15 167.744 363.15ZM161.564 352.35C161.564 353.27 161.704 354.16 161.984 355.02C162.264 355.88 162.664 356.65 163.184 357.33C163.724 357.99 164.374 358.52 165.134 358.92C165.914 359.3 166.794 359.49 167.774 359.49C168.774 359.49 169.664 359.29 170.444 358.89C171.224 358.47 171.874 357.92 172.394 357.24C172.914 356.54 173.304 355.77 173.564 354.93C173.844 354.07 173.984 353.21 173.984 352.35C173.984 351.43 173.834 350.55 173.534 349.71C173.254 348.85 172.844 348.09 172.304 347.43C171.784 346.75 171.134 346.22 170.354 345.84C169.594 345.44 168.734 345.24 167.774 345.24C166.754 345.24 165.854 345.45 165.074 345.87C164.314 346.27 163.674 346.81 163.154 347.49C162.634 348.17 162.234 348.93 161.954 349.77C161.694 350.61 161.564 351.47 161.564 352.35ZM198.699 363V349.02L193.239 359.43H190.929L185.469 349.02V363H181.329V341.7H185.769L192.069 353.82L198.429 341.7H202.839V363H198.699ZM216.376 363.15C214.816 363.15 213.396 362.85 212.116 362.25C210.856 361.65 209.766 360.84 208.846 359.82C207.946 358.78 207.246 357.62 206.746 356.34C206.246 355.04 205.996 353.71 205.996 352.35C205.996 350.93 206.256 349.58 206.776 348.3C207.316 347 208.046 345.85 208.966 344.85C209.906 343.83 211.006 343.03 212.266 342.45C213.546 341.85 214.946 341.55 216.466 341.55C218.006 341.55 219.406 341.86 220.666 342.48C221.946 343.1 223.036 343.93 223.936 344.97C224.836 346.01 225.536 347.17 226.036 348.45C226.536 349.73 226.786 351.05 226.786 352.41C226.786 353.81 226.526 355.16 226.006 356.46C225.486 357.74 224.756 358.89 223.816 359.91C222.896 360.91 221.796 361.7 220.516 362.28C219.256 362.86 217.876 363.15 216.376 363.15ZM210.196 352.35C210.196 353.27 210.336 354.16 210.616 355.02C210.896 355.88 211.296 356.65 211.816 357.33C212.356 357.99 213.006 358.52 213.766 358.92C214.546 359.3 215.426 359.49 216.406 359.49C217.406 359.49 218.296 359.29 219.076 358.89C219.856 358.47 220.506 357.92 221.026 357.24C221.546 356.54 221.936 355.77 222.196 354.93C222.476 354.07 222.616 353.21 222.616 352.35C222.616 351.43 222.466 350.55 222.166 349.71C221.886 348.85 221.476 348.09 220.936 347.43C220.416 346.75 219.766 346.22 218.986 345.84C218.226 345.44 217.366 345.24 216.406 345.24C215.386 345.24 214.486 345.45 213.706 345.87C212.946 346.27 212.306 346.81 211.786 347.49C211.266 348.17 210.866 348.93 210.586 349.77C210.326 350.61 210.196 351.47 210.196 352.35ZM228.672 352.2C228.672 350.9 228.902 349.63 229.362 348.39C229.842 347.13 230.532 345.99 231.432 344.97C232.332 343.93 233.432 343.11 234.732 342.51C236.032 341.89 237.512 341.58 239.172 341.58C241.132 341.58 242.822 342.01 244.242 342.87C245.682 343.73 246.752 344.85 247.452 346.23L244.272 348.42C243.912 347.62 243.442 346.99 242.862 346.53C242.282 346.05 241.662 345.72 241.002 345.54C240.342 345.34 239.692 345.24 239.052 345.24C238.012 345.24 237.102 345.45 236.322 345.87C235.562 346.29 234.922 346.84 234.402 347.52C233.882 348.2 233.492 348.96 233.232 349.8C232.992 350.64 232.872 351.48 232.872 352.32C232.872 353.26 233.022 354.17 233.322 355.05C233.622 355.91 234.042 356.68 234.582 357.36C235.142 358.02 235.802 358.55 236.562 358.95C237.342 359.33 238.192 359.52 239.112 359.52C239.772 359.52 240.442 359.41 241.122 359.19C241.802 358.97 242.432 358.62 243.012 358.14C243.592 357.66 244.042 357.04 244.362 356.28L247.752 358.23C247.332 359.29 246.642 360.19 245.682 360.93C244.742 361.67 243.682 362.23 242.502 362.61C241.322 362.99 240.152 363.18 238.992 363.18C237.472 363.18 236.082 362.87 234.822 362.25C233.562 361.61 232.472 360.77 231.552 359.73C230.652 358.67 229.942 357.49 229.422 356.19C228.922 354.87 228.672 353.54 228.672 352.2ZM250.529 363V341.7H254.669V363H250.529ZM268.203 363.15C266.643 363.15 265.223 362.85 263.943 362.25C262.683 361.65 261.593 360.84 260.673 359.82C259.773 358.78 259.073 357.62 258.573 356.34C258.073 355.04 257.823 353.71 257.823 352.35C257.823 350.93 258.083 349.58 258.603 348.3C259.143 347 259.873 345.85 260.793 344.85C261.733 343.83 262.833 343.03 264.093 342.45C265.373 341.85 266.773 341.55 268.293 341.55C269.833 341.55 271.233 341.86 272.493 342.48C273.773 343.1 274.863 343.93 275.763 344.97C276.663 346.01 277.363 347.17 277.863 348.45C278.363 349.73 278.613 351.05 278.613 352.41C278.613 353.81 278.353 355.16 277.833 356.46C277.313 357.74 276.583 358.89 275.643 359.91C274.723 360.91 273.623 361.7 272.343 362.28C271.083 362.86 269.703 363.15 268.203 363.15ZM262.023 352.35C262.023 353.27 262.163 354.16 262.443 355.02C262.723 355.88 263.123 356.65 263.643 357.33C264.183 357.99 264.833 358.52 265.593 358.92C266.373 359.3 267.253 359.49 268.233 359.49C269.233 359.49 270.123 359.29 270.903 358.89C271.683 358.47 272.333 357.92 272.853 357.24C273.373 356.54 273.763 355.77 274.023 354.93C274.303 354.07 274.443 353.21 274.443 352.35C274.443 351.43 274.293 350.55 273.993 349.71C273.713 348.85 273.303 348.09 272.763 347.43C272.243 346.75 271.593 346.22 270.813 345.84C270.053 345.44 269.193 345.24 268.233 345.24C267.213 345.24 266.313 345.45 265.533 345.87C264.773 346.27 264.133 346.81 263.613 347.49C263.093 348.17 262.693 348.93 262.413 349.77C262.153 350.61 262.023 351.47 262.023 352.35ZM269.613 339.9L267.033 339.12L268.653 335.55H272.403L269.613 339.9ZM285.928 349.32V363H281.788V341.7H285.088L296.098 355.74V341.73H300.238V363H296.788L285.928 349.32Z" fill="black"/>
</svg>
