<svg width="109" height="109" viewBox="0 0 109 109" fill="none" xmlns="http://www.w3.org/2000/svg">
<g clip-path="url(#clip0_2140_2)">
<rect x="19" y="16" width="70" height="70" rx="27" fill="white"/>
<rect x="33" y="44" width="14" height="43" fill="#111111"/>
<rect x="47" y="30" width="44" height="14" fill="#111111"/>
<rect x="40" y="58" width="21" height="14" fill="#111111"/>
<circle cx="47" cy="44" r="14" fill="#111111"/>
<circle cx="61" cy="58" r="14" fill="#111111"/>
<rect x="47" y="44" width="33" height="14" rx="3" fill="white"/>
<path d="M23.3536 91.9H24.7536L27.3636 99H25.9436L25.2836 97.23H22.8036L22.1536 99H20.7336L23.3536 91.9ZM25.0336 96.26L24.0536 93.33L23.0336 96.26H25.0336ZM30.8691 99.05C30.3025 99.05 29.8191 98.9567 29.4191 98.77C29.0258 98.5767 28.7058 98.3133 28.4591 97.98C28.2191 97.6467 28.0425 97.27 27.9291 96.85C27.8158 96.4233 27.7591 95.98 27.7591 95.52V91.9H29.1391V95.52C29.1391 95.8133 29.1658 96.1 29.2191 96.38C29.2791 96.6533 29.3758 96.9 29.5091 97.12C29.6425 97.34 29.8191 97.5133 30.0391 97.64C30.2591 97.7667 30.5325 97.83 30.8591 97.83C31.1925 97.83 31.4691 97.7667 31.6891 97.64C31.9158 97.5067 32.0925 97.33 32.2191 97.11C32.3525 96.89 32.4491 96.6433 32.5091 96.37C32.5691 96.09 32.5991 95.8067 32.5991 95.52V91.9H33.9691V95.52C33.9691 96.0067 33.9091 96.4633 33.7891 96.89C33.6758 97.3167 33.4925 97.6933 33.2391 98.02C32.9925 98.34 32.6725 98.5933 32.2791 98.78C31.8858 98.96 31.4158 99.05 30.8691 99.05ZM40.6691 93.11H38.3991V99H37.0291V93.11H34.7591V91.9H40.6691V93.11ZM44.4145 99.05C43.8945 99.05 43.4212 98.95 42.9945 98.75C42.5745 98.55 42.2112 98.28 41.9045 97.94C41.6045 97.5933 41.3712 97.2067 41.2045 96.78C41.0379 96.3467 40.9545 95.9033 40.9545 95.45C40.9545 94.9767 41.0412 94.5267 41.2145 94.1C41.3945 93.6667 41.6379 93.2833 41.9445 92.95C42.2579 92.61 42.6245 92.3433 43.0445 92.15C43.4712 91.95 43.9379 91.85 44.4445 91.85C44.9579 91.85 45.4245 91.9533 45.8445 92.16C46.2712 92.3667 46.6345 92.6433 46.9345 92.99C47.2345 93.3367 47.4679 93.7233 47.6345 94.15C47.8012 94.5767 47.8845 95.0167 47.8845 95.47C47.8845 95.9367 47.7979 96.3867 47.6245 96.82C47.4512 97.2467 47.2079 97.63 46.8945 97.97C46.5879 98.3033 46.2212 98.5667 45.7945 98.76C45.3745 98.9533 44.9145 99.05 44.4145 99.05ZM42.3545 95.45C42.3545 95.7567 42.4012 96.0533 42.4945 96.34C42.5879 96.6267 42.7212 96.8833 42.8945 97.11C43.0745 97.33 43.2912 97.5067 43.5445 97.64C43.8045 97.7667 44.0979 97.83 44.4245 97.83C44.7579 97.83 45.0545 97.7633 45.3145 97.63C45.5745 97.49 45.7912 97.3067 45.9645 97.08C46.1379 96.8467 46.2679 96.59 46.3545 96.31C46.4479 96.0233 46.4945 95.7367 46.4945 95.45C46.4945 95.1433 46.4445 94.85 46.3445 94.57C46.2512 94.2833 46.1145 94.03 45.9345 93.81C45.7612 93.5833 45.5445 93.4067 45.2845 93.28C45.0312 93.1467 44.7445 93.08 44.4245 93.08C44.0845 93.08 43.7845 93.15 43.5245 93.29C43.2712 93.4233 43.0579 93.6033 42.8845 93.83C42.7112 94.0567 42.5779 94.31 42.4845 94.59C42.3979 94.87 42.3545 95.1567 42.3545 95.45ZM54.7331 99V94.34L52.9131 97.81H52.1431L50.3231 94.34V99H48.9431V91.9H50.4231L52.5231 95.94L54.6431 91.9H56.1131V99H54.7331ZM60.6255 99.05C60.1055 99.05 59.6321 98.95 59.2055 98.75C58.7855 98.55 58.4221 98.28 58.1155 97.94C57.8155 97.5933 57.5821 97.2067 57.4155 96.78C57.2488 96.3467 57.1655 95.9033 57.1655 95.45C57.1655 94.9767 57.2521 94.5267 57.4255 94.1C57.6055 93.6667 57.8488 93.2833 58.1555 92.95C58.4688 92.61 58.8355 92.3433 59.2555 92.15C59.6821 91.95 60.1488 91.85 60.6555 91.85C61.1688 91.85 61.6355 91.9533 62.0555 92.16C62.4821 92.3667 62.8455 92.6433 63.1455 92.99C63.4455 93.3367 63.6788 93.7233 63.8455 94.15C64.0121 94.5767 64.0955 95.0167 64.0955 95.47C64.0955 95.9367 64.0088 96.3867 63.8355 96.82C63.6621 97.2467 63.4188 97.63 63.1055 97.97C62.7988 98.3033 62.4321 98.5667 62.0055 98.76C61.5855 98.9533 61.1255 99.05 60.6255 99.05ZM58.5655 95.45C58.5655 95.7567 58.6121 96.0533 58.7055 96.34C58.7988 96.6267 58.9321 96.8833 59.1055 97.11C59.2855 97.33 59.5021 97.5067 59.7555 97.64C60.0155 97.7667 60.3088 97.83 60.6355 97.83C60.9688 97.83 61.2655 97.7633 61.5255 97.63C61.7855 97.49 62.0021 97.3067 62.1755 97.08C62.3488 96.8467 62.4788 96.59 62.5655 96.31C62.6588 96.0233 62.7055 95.7367 62.7055 95.45C62.7055 95.1433 62.6555 94.85 62.5555 94.57C62.4621 94.2833 62.3255 94.03 62.1455 93.81C61.9721 93.5833 61.7555 93.4067 61.4955 93.28C61.2421 93.1467 60.9555 93.08 60.6355 93.08C60.2955 93.08 59.9955 93.15 59.7355 93.29C59.4821 93.4233 59.2688 93.6033 59.0955 93.83C58.9221 94.0567 58.7888 94.31 58.6955 94.59C58.6088 94.87 58.5655 95.1567 58.5655 95.45ZM64.7241 95.4C64.7241 94.9667 64.8007 94.5433 64.9541 94.13C65.1141 93.71 65.3441 93.33 65.6441 92.99C65.9441 92.6433 66.3107 92.37 66.7441 92.17C67.1774 91.9633 67.6707 91.86 68.2241 91.86C68.8774 91.86 69.4407 92.0033 69.9141 92.29C70.3941 92.5767 70.7507 92.95 70.9841 93.41L69.9241 94.14C69.8041 93.8733 69.6474 93.6633 69.4541 93.51C69.2607 93.35 69.0541 93.24 68.8341 93.18C68.6141 93.1133 68.3974 93.08 68.1841 93.08C67.8374 93.08 67.5341 93.15 67.2741 93.29C67.0207 93.43 66.8074 93.6133 66.6341 93.84C66.4607 94.0667 66.3307 94.32 66.2441 94.6C66.1641 94.88 66.1241 95.16 66.1241 95.44C66.1241 95.7533 66.1741 96.0567 66.2741 96.35C66.3741 96.6367 66.5141 96.8933 66.6941 97.12C66.8807 97.34 67.1007 97.5167 67.3541 97.65C67.6141 97.7767 67.8974 97.84 68.2041 97.84C68.4241 97.84 68.6474 97.8033 68.8741 97.73C69.1007 97.6567 69.3107 97.54 69.5041 97.38C69.6974 97.22 69.8474 97.0133 69.9541 96.76L71.0841 97.41C70.9441 97.7633 70.7141 98.0633 70.3941 98.31C70.0807 98.5567 69.7274 98.7433 69.3341 98.87C68.9407 98.9967 68.5507 99.06 68.1641 99.06C67.6574 99.06 67.1941 98.9567 66.7741 98.75C66.3541 98.5367 65.9907 98.2567 65.6841 97.91C65.3841 97.5567 65.1474 97.1633 64.9741 96.73C64.8074 96.29 64.7241 95.8467 64.7241 95.4ZM72.0095 99V91.9H73.3895V99H72.0095ZM77.9009 99.05C77.3809 99.05 76.9075 98.95 76.4809 98.75C76.0609 98.55 75.6975 98.28 75.3909 97.94C75.0909 97.5933 74.8575 97.2067 74.6909 96.78C74.5242 96.3467 74.4409 95.9033 74.4409 95.45C74.4409 94.9767 74.5275 94.5267 74.7009 94.1C74.8809 93.6667 75.1242 93.2833 75.4309 92.95C75.7442 92.61 76.1109 92.3433 76.5309 92.15C76.9575 91.95 77.4242 91.85 77.9309 91.85C78.4442 91.85 78.9109 91.9533 79.3309 92.16C79.7575 92.3667 80.1209 92.6433 80.4209 92.99C80.7209 93.3367 80.9542 93.7233 81.1209 94.15C81.2875 94.5767 81.3709 95.0167 81.3709 95.47C81.3709 95.9367 81.2842 96.3867 81.1109 96.82C80.9375 97.2467 80.6942 97.63 80.3809 97.97C80.0742 98.3033 79.7075 98.5667 79.2809 98.76C78.8609 98.9533 78.4009 99.05 77.9009 99.05ZM75.8409 95.45C75.8409 95.7567 75.8875 96.0533 75.9809 96.34C76.0742 96.6267 76.2075 96.8833 76.3809 97.11C76.5609 97.33 76.7775 97.5067 77.0309 97.64C77.2909 97.7667 77.5842 97.83 77.9109 97.83C78.2442 97.83 78.5409 97.7633 78.8009 97.63C79.0609 97.49 79.2775 97.3067 79.4509 97.08C79.6242 96.8467 79.7542 96.59 79.8409 96.31C79.9342 96.0233 79.9809 95.7367 79.9809 95.45C79.9809 95.1433 79.9309 94.85 79.8309 94.57C79.7375 94.2833 79.6009 94.03 79.4209 93.81C79.2475 93.5833 79.0309 93.4067 78.7709 93.28C78.5175 93.1467 78.2309 93.08 77.9109 93.08C77.5709 93.08 77.2709 93.15 77.0109 93.29C76.7575 93.4233 76.5442 93.6033 76.3709 93.83C76.1975 94.0567 76.0642 94.31 75.9709 94.59C75.8842 94.87 75.8409 95.1567 75.8409 95.45ZM83.8095 94.44V99H82.4295V91.9H83.5295L87.1995 96.58V91.91H88.5795V99H87.4295L83.8095 94.44Z" fill="white"/>
</g>
<defs>
<clipPath id="clip0_2140_2">
<rect width="109" height="109" fill="white"/>
</clipPath>
</defs>
</svg>
